<svg width="14" height="14" viewBox="0 0 14 14" fill="none" xmlns="http://www.w3.org/2000/svg">
<path d="M7.00001 0.333374C3.32668 0.333374 0.333344 3.32671 0.333344 7.00004C0.333344 10.6734 3.32668 13.6667 7.00001 13.6667C10.6733 13.6667 13.6667 10.6734 13.6667 7.00004C13.6667 3.32671 10.6733 0.333374 7.00001 0.333374ZM9.70668 8.19337C9.60668 8.29337 9.48001 8.34004 9.35334 8.34004C9.22668 8.34004 9.10001 8.29337 9.00001 8.19337L7.00001 6.19337L5.00001 8.19337C4.80668 8.38671 4.48668 8.38671 4.29334 8.19337C4.10001 8.00004 4.10001 7.68004 4.29334 7.48671L6.64668 5.13337C6.84001 4.94004 7.16001 4.94004 7.35334 5.13337L9.70668 7.48671C9.90001 7.68671 9.90001 8.00004 9.70668 8.19337Z" fill="#20BF6B"/>
</svg>
